/* XPM */
static char *result[] = {
/* columns rows colors chars-per-pixel */
"50 50 76 1 ",
"  c #DC2F27",
". c #CF392A",
"X c #D33729",
"o c #D63428",
"O c #DC3129",
"+ c #DC322A",
"@ c #DD322B",
"# c #DD332B",
"$ c #DD342C",
"% c #DD352D",
"& c #DE3830",
"* c #DE3931",
"= c #DE3A32",
"- c #DE3A33",
"; c #DE3B33",
": c #DE3C35",
"> c #B64D2F",
", c #B84B2F",
"< c #897039",
"1 c #C7402C",
"2 c #DF423B",
"3 c #DF433C",
"4 c #E0433C",
"5 c #E04841",
"6 c #E04942",
"7 c #E14A43",
"8 c #E14D45",
"9 c #E25049",
"0 c #E2534C",
"q c #E2554E",
"w c #E35851",
"e c #E35A53",
"r c #E35A54",
"t c #E46059",
"y c #E5625C",
"u c #E5645E",
"i c #E5655F",
"p c #E66761",
"a c #E66963",
"s c #E66964",
"d c #E76E68",
"f c #E8736E",
"g c #E8756F",
"h c #E8766F",
"j c #72823D",
"k c #39AC49",
"l c #3AAC49",
"z c #2FB44B",
"x c #569743",
"c c #5A9342",
"v c #589542",
"b c #EA807A",
"n c #EA827D",
"m c #EB847F",
"M c #EB8782",
"N c #EC8F8A",
"B c #F0A3A0",
"V c #F0A5A1",
"C c #F0A6A2",
"Z c #F1ACA8",
"A c #F2ADA9",
"S c #F4BAB6",
"D c #F4BBB8",
"F c #F5BFBC",
"G c #F5C4C2",
"H c #F6C7C4",
"J c #F7CDCB",
"K c #F7CECC",
"L c #F7CFCD",
"P c #FCECEB",
"I c #FDF0F0",
"U c #FDF3F2",
"Y c #FEF8F7",
"T c #FFFCFB",
"R c #FFFDFD",
"E c None",
/* pixels */
"EEEEEEEEEEEEEEEEEEEEEEzzzzzzzEEEEEEEEEEEEEEEEEEEEE",
"EEEEEEEEEEEEEEEEEEEEEEzzzzzzzEEEEEEEEEEEEEEEEEEEEE",
"EEEEEEEEEEEEEEEEEEEEEEzzzzzzzEEEEEEEEEEEEEEEEEEEEE",
"EEEEEEEEEEEEEEEEEEEEEEzzzzzzzEEEEEEEEEEEEEEEEEEEEE",
"EEEEEEEEEEEEEEEEEEEEEEzzzzzzzEEEEEEEEEEEEEEEEEEEEE",
"EEEEEEEEEzzzzzzzzzzzzzzzzzzzzzzzzzzzzzzzzzEEEEEEEE",
"EEEEEEEEEzzzzzzzzzzzzzzzzzzzzzzzzzzzzzzzzzEEEEEEEE",
"EEEEEEEEEzzzzzzzzzzzzzzzzzzzzzzzzzzzzzzzzzEEEEEEEE",
"EEEEEE  >kzzzzzzzzzzzzzzzzzzzzzzzzzzzzzzzv  EEEEEE",
"EEEEEE  ,lzzzzzzzzzzzzzzzzzzzzzzzzzzzzzzzc  EEEEEE",
"EEEEEE  ,lzzzzzzzzzzzzzzzzzzzzzzzzzzzzzzzc  EEEEEE",
"EEEEEE          1zzzzzzzzzzzzzzzzxX         EEEEEE",
"EEEEEE          1zzzzzzzzzzzzzzzzxX         EEEEEE",
"EEEEEE          1zzzzzzzzzzzzzzzzxX         EEEEEE",
"EEEEEE          .jjjjjjjjjjjjjjjj<o         EEEEEE",
"                                                  ",
"                                                  ",
"                                                  ",
"        6VAAAe                     3ZAAA8         ",
"        rIRRRg                     9TRRRt         ",
"        rIRRRg                     9TRRRt         ",
"        rIRRRg                     9TRRRt         ",
"        9GKKKi     0ttttt:         5JKKKq         ",
"        O*===#     FUUUUUu         O====+         ",
"                   HRRRRRp                        ",
"                   HRRRRRp                        ",
"                   HRRRRRp                        ",
"                   HRRRRRp                        ",
"                   SPPPPPy       -4442%           ",
"EEEEE                            CRRRYa        EEE",
"EEEEEE                           CRRRYa     EEEEEE",
"EEEEEE                           CRRRYa     EEEEEE",
"EEEEEE                           CRRRYa     EEEEEE",
"EEEEEE                           nFFFDw     EEEEEE",
"EEEEEE             hNN7                     EEEEEE",
"EEEEEE             HRRs                     EEEEEE",
"EEEEEE             HRRs     $;;;;$          EEEEEE",
"EEEEEE             mBB9     dLLLLf         EEEEEEE",
"EEEEEEEEEEEEE               bRRRRM       EEEEEEEEE",
"EEEEEEEEEEEEE               bRRRRM       EEEEEEEEE",
"EEEEEEEEEEEEE               bRRRRM       EEEEEEEEE",
"EEEEEEEEEEEEE               bRRRRM       EEEEEEEEE",
"EEEEEEEEEEEEE               @&&&&#       EEEEEEEEE",
"EEEEEEEEEEEEE                            EEEEEEEEE",
"EEEEEEEEEEEEE                            EEEEEEEEE",
"EEEEEEEEEEEEE                           EEEEEEEEEE",
"EEEEEEEEEEEEEEEEEEE            EEEEEEEEEEEEEEEEEEE",
"EEEEEEEEEEEEEEEEEEE            EEEEEEEEEEEEEEEEEEE",
"EEEEEEEEEEEEEEEEEEE            EEEEEEEEEEEEEEEEEEE",
"EEEEEEEEEEEEEEEEEEE            EEEEEEEEEEEEEEEEEEE"
};
