/* XPM */
static char *result[] = {
/* columns rows colors chars-per-pixel */
"50 50 87 1 ",
"  c black",
". c blue",
"X c #1616FE",
"o c #0707FF",
"O c #B0B0F4",
"+ c #AFAFF4",
"@ c #7171F8",
"# c #A6A6F4",
"$ c #E3E3F0",
"% c #5F5FF9",
"& c #C2C2F2",
"* c #BCBCF3",
"= c #E1E1F1",
"- c #E4E4F0",
"; c #D9D9F1",
": c #B3B3F3",
"> c #8383F7",
", c #7C7CF7",
"< c #1515FE",
"1 c #C1C1F3",
"2 c #6A6AF8",
"3 c #C7C7F2",
"4 c #4F4FFA",
"5 c #AAAAF4",
"6 c #DEDEF1",
"7 c #B7B7F3",
"8 c #8F8FF6",
"9 c #2222FD",
"0 c #7373F8",
"q c #DADAF1",
"w c #D2D2F1",
"e c #CDCDF2",
"r c #D0D0F2",
"t c #DDDDF1",
"y c #D1D1F2",
"u c #C4C4F2",
"i c #CACAF2",
"p c #2D2D2F",
"a c #265428",
"s c #265328",
"d c #29402B",
"f c #2B372D",
"g c #284B2A",
"h c #265229",
"j c #284A29",
"k c #13C715",
"l c #1F7A21",
"z c #14BE16",
"x c #1AA01B",
"c c #255D26",
"v c #14C016",
"b c #1A9E1B",
"n c #19A11B",
"m c #17AB1A",
"M c #236724",
"N c #15B418",
"B c #217023",
"V c #1C8E1F",
"C c #207A22",
"Z c #14BC16",
"A c #15B317",
"S c #1B971C",
"D c #9D9DF5",
"F c #4545FB",
"G c #9B9BF5",
"H c #8282F7",
"J c #CFCFF2",
"K c #D4D4F1",
"L c #B4B4F3",
"P c #A4A4F4",
"I c #BBBBF3",
"U c #C8C8F2",
"Y c #4A4AFA",
"T c #9393F6",
"R c #7F7FF7",
"E c #8080F7",
"W c #3B3BFB",
"Q c #9191F6",
"! c #E9E9F0",
"~ c #E5E5F0",
"^ c #D6D6F1",
"/ c #D5D5F1",
"( c #1C1CFD",
") c #5656F9",
"_ c #2929FC",
"` c #4848FA",
"' c #5353FA",
/* pixels */
"                                                  ",
"                                                  ",
"                                                  ",
"                                                  ",
"        .Xo..............................         ",
"        .O+@.............................         ",
"        .#$$%............................         ",
"        .&*=-;:>,<.......................         ",
"        .123456$;1*789...................         ",
"        .0q;wer6tyuy;i7..................         ",
"        .................................         ",
"         ppppppppppppppppppppppppppppppp          ",
"         ppppppppppppppppppppppppppppppp          ",
"         ppppppppppppppppppppppppppppppp          ",
"         ppppppppppppppppppppppppppppppp          ",
"         ppppppppppppppppppppppppppppppp          ",
"         ppppppppppppppppppppppppppppppp          ",
"         ppppppppppppppppppppppppppppppp          ",
"         ppppppppppppppppppppppppppppppp          ",
"         pppppasssdfsdppagphjdsssssgpppp          ",
"         pppppkkkklfzxpcklpvblkkkkknpppp          ",
"         pppppkmaadpMklNmppvbdaBkVagpppp          ",
"         pppppkNCCdppnkkappvbppaklpppppp          ",
"         pppppkkkkappBkNfppvbppaklpppppp          ",
"         pppppknppppfZAklppvbppaklpppppp          ",
"         pppppkNCCapVkdSkdpvbppaklpppppp          ",
"         pppppkkkklaklpfzxpvbppaklpppppp          ",
"         ppppppppppppppppppppppppppppppp          ",
"         ppppppppppppppppppppppppppppppp          ",
"         ppppppppppppppppppppppppppppppp          ",
"         ppppppppppppppppppppppppppppppp          ",
"         ppppppppppppppppppppppppppppppp          ",
"         ppppppppppppppppppppppppppppppp          ",
"         ppppppppppppppppppppppppppppppp          ",
"         ppppppppppppppppppppppppppppppp          ",
"         ppppppppppppppppppppppppppppppp          ",
"         ppppppppppppppppppppppppppppppp          ",
"        .................................         ",
"        .................................         ",
"        .DFG.............................         ",
"        .qHJ.............................         ",
"        .KLP3I*UeeeeII***YT>HHREEW.......         ",
"        .Q$$!!!!!~-;I***IIJ^^^^^/U*I>....         ",
"        ..())_.`'o.......................         ",
"                                                  ",
"                                                  ",
"                                                  ",
"                                                  ",
"                                                  ",
"                                                  "
};
