/* XPM */
static char *result[] = {
/* columns rows colors chars-per-pixel */
"50 50 76 1 ",
"  c black",
". c blue",
"X c #3E3EFB",
"o c #3939FB",
"O c #D7D7F1",
"+ c #AFAFF4",
"@ c #7D7DF7",
"# c #D8D8F1",
"$ c #A6A6F4",
"% c #C4C4F2",
"& c #BEBEF3",
"* c #E6E6F0",
"= c #E3E3F0",
"- c #E2E2F0",
"; c #4A4AFA",
": c #2F2FFC",
"> c #8E8EF6",
", c #9191F6",
"< c #B3B3F3",
"1 c #CDCDF2",
"2 c #6969F8",
"3 c #9696F5",
"4 c #9595F5",
"5 c #6868F8",
"6 c #0707FF",
"7 c #525254",
"8 c #C7C7CC",
"9 c #7C7C7F",
"0 c #A8A8AD",
"q c #BABABF",
"w c #6C6C6F",
"e c #99999D",
"r c #D0D0D6",
"t c #D3D3D8",
"y c #E6E6EC",
"u c #E2E2E7",
"i c #CECED3",
"p c #CCCCD1",
"a c #D3D3D9",
"s c #D1D1D6",
"d c #D2D2D7",
"f c #E5E5EA",
"g c #D7D7DD",
"h c #D9D9DF",
"j c #A7A7AB",
"k c #C8C8CD",
"l c #A7A7F4",
"z c #3B3BFB",
"x c #CFCFF2",
"c c #DBDBF1",
"v c #C2C2F2",
"b c #B2B2F4",
"n c #D9D9F1",
"m c #9F9FF5",
"M c #1C1CFD",
"N c #4343FB",
"B c #1D1DFD",
"V c #6767F8",
"C c #5E5EF9",
"Z c #A4A4F4",
"A c #BBBBF3",
"S c #DFDFF1",
"D c #E9E9F0",
"F c #E8E8F0",
"G c #DADAF1",
"H c #BCBCF3",
"J c #E1E1F1",
"K c #CECEF2",
"L c #C5C5F2",
"P c #C9C9F2",
"I c #D5D5F1",
"U c #C3C3F2",
"Y c #CBCBF2",
"T c #2828FC",
"R c #2323FD",
"E c #1515FE",
/* pixels */
"                                                  ",
"                                                  ",
"                                                  ",
"                                                  ",
"        .................................         ",
"        .Xo..............................         ",
"        .O+............................@.         ",
"        .#$............................%.         ",
"        .&*=-%;..................:>>>,<1.         ",
"        .........................2344,56.         ",
"        .................................         ",
"           77   77   77   77   77   77            ",
"           77   77   77   77   77   77            ",
"           87   97   07   q7   w7   e7            ",
"           r7   t7   y7   u7   i7   r7            ",
"           r7   p7   y7   a7   r7   s7            ",
"           r7   p7   y7   d7   s7   s7            ",
"           r7   p7   y7   d7   s7   s7            ",
"           r7   p7   y7   d7   s7   r7            ",
"           r7   p7   y7   d7   s7   r7            ",
"           r7   p7   y7   d7   s7   r7            ",
"           r7   p7   y7   d7   s7   r7            ",
"           r7   p7   y7   d7   s7   r7            ",
"           r7   p7   y7   d7   s7   r7            ",
"           r7   p7   y7   d7   s7   r7            ",
"           r7   p7   y7   d7   s7   r7            ",
"           r7   p7   y7   d7   s7   s7            ",
"           r7   p7   f7   d7   s7   s7            ",
"           r7   p7   g7   d7   s7   s7            ",
"           r7   p7   g7   d7   s7   r7            ",
"           r7   p7   g7   d7   s7   a7            ",
"           r7   p7   d7   d7   s7   h7            ",
"           r7   j7   k7   e7   d7   e7            ",
"           e7   77   77   77   77   77            ",
"           77   77   77   77   77   77            ",
"           77   77   77   77   77   77            ",
"           77   77   77   77   77   77            ",
"        ...77...77...77...77...77...77...         ",
"        ...77...77...77...77...77...77...         ",
"        .l...............................         ",
"        zxc-vb1nvm5MN..B.............VC..         ",
"        6ZmvA1#S=DDFGHxJK%%L%L%%%PI%UYT..         ",
"        .RE..............................         ",
"        .................................         ",
"                                                  ",
"                                                  ",
"                                                  ",
"                                                  ",
"                                                  ",
"                                                  "
};
