/* XPM */
static char *result[] = {
/* columns rows colors chars-per-pixel */
"50 50 49 1 ",
"  c #CD0303",
". c #CE0202",
"X c #CF0202",
"o c #CE0302",
"O c #CF0302",
"+ c #CE0203",
"@ c #CE0303",
"# c #CF0303",
"$ c #CE0403",
"% c #CF0403",
"& c #CC0305",
"* c #CB0506",
"= c #CD0405",
"- c #CD0505",
"; c #CE0404",
": c #CE0505",
"> c #C90807",
", c #D10101",
"< c #D20000",
"1 c #D30000",
"2 c #D30100",
"3 c #D20101",
"4 c #D30101",
"5 c #D00302",
"6 c #D00203",
"7 c #D40000",
"8 c #D50000",
"9 c #D40001",
"0 c #2B95E9",
"q c #2C94E8",
"w c #2195F1",
"e c #2295F1",
"r c #2395F1",
"t c #2096F1",
"y c #2095F2",
"u c #2195F2",
"i c #FFF6F6",
"p c #FFF6F7",
"a c #FEFCFC",
"s c #FFFCFC",
"d c #FEFEFD",
"f c #FFFEFD",
"g c #FCFEFF",
"h c #FDFFFF",
"j c #FEFEFE",
"k c #FFFEFE",
"l c #FEFEFF",
"z c white",
"x c None",
/* pixels */
"xxxxxxxxxxxxxxxxxxxxxxxxxxxxxxxxxxxxxxxxxxxxxxxxxx",
"xxxxxxxxxxxxxxxxxx77777777777777xxxxxxxxxxxxxxxxxx",
"xxxxxxxxxxxxxxxxxx77777777777778xxxxxxxxxxxxxxxxxx",
"xxxxxxxxxxxxxxxxxx777777777777<7xxxxxxxxxxxxxxxxxx",
"xxxxxxxxxxx@777777777777777777777777773xxxxxxxxxxx",
"xxxxxxxxxxx@777777777777777777777777773xxxxxxxxxxx",
"xxxxxxxxxxx@777777777777777777777777773xxxxxxxxxxx",
"xxxxxxxx---<777777777777777777777777777-:-xxxxxxxx",
"xxxxxxx-7777777777777777777777777777777777xxxxxxxx",
"xxxxxxx-7777777777777777777777777777777777xxxxxxxx",
"xxxxxxx-8777777777777777777777777777777777xxxxxxxx",
"xxxx@@@27777777ssssss77777777777777#asssss7@@ xxxx",
"xxxx77777777787jjjjjj777777777777775jjjjjj7771xxxx",
"xxxx77777777877jjjjjj778777777777775jjjjjj7791xxxx",
"xxxx77777777777jjjjjj777747777777777jjjjjj7777xxxx",
"xxxx7777777jjjjjjjjjjjjjj3777777jjjjjjjjjjjjjjxxxx",
"xxxx7777777jjjjjjjjjjjjjj3777777jjjjjjjjjjjjjjxxxx",
"xxxx7777777jjjjjjjjjjjjjj,777777jjjjjjjjjjjjjjxxxx",
"xxxx7777777jjjjjjj00000006777777jjjjjjjq000000xxxx",
"xxxx7777777jjjjjjdyyyyyyy6<77777jjjjjjjryyyyyyxxxx",
"xxxx7777777jjjjjjjtyyyyyy6777777jjjjjjjryyyyytxxxx",
"xxxx7777777jjjjjjjtyyyyyy6777777jjjjjjjryyyyywxxxx",
"x7777777777jjjjjjjtyyyyyy6777777jjjjjjjryyyyyw&77x",
"x7777777777jjjjjjjtyyyyyy6777777jjjjjjjryyyyyw&77x",
"x7777777777kkkjjjjtyyuuuu6777777kkkjjjjryyuuue&77x",
"x7777777777,3,7jjjghh76661777777,333jjjhhh=666777x",
"x77777777777777jjjflj777778777777775jjjjjj;777777x",
"x77777777777777jjjjjj777777777777775jjjjjj;977777x",
"x7777777777787>jjjjjj;7777777777777*pzzzziX777777x",
"x777777777777777777777777777777777777777778777777x",
"x777777777777777777777777777777777777777777777777x",
"x777777777777777777777777777777777777777777777777x",
"x777777777777777777777777777777777777777777777777x",
"x777777777777777777777777777777777777777777777777x",
"x777777777777777777777777777777777777777777777777x",
"x777777777777777777777777777777777777777777777777x",
"x777777777777777777777777777777777777777777777777x",
"x777777777777777777777777777777777777777777777777x",
"x777777777777777777777777777777777777777777777777x",
"x777777777777777777777777777777777777777777777777x",
"x777777777777777777777777777777777777777777777777x",
"x777777777777777777777777777777777777777777777777x",
"x777777xxxxX777777777777777777777777773xxx%777777x",
"x777777xxxx 777777779Oxxxxxxx7777777773xxx;777777x",
"x777777xxxx@777777777$xxxxxxx7777777793xxx;777777x",
"x777<77xxxx@777777777%xxxxxxx7777777773xxx;787777x",
"x774xxxxxxxxxxx777777%xxxxxxx777777xxxxxxxxxxx.77x",
"x774xxxxxxxxxxx777777oxxxxxxx777777xxxxxxxxxxx+77x",
"x774xxxxxxxxxxx777777oxxxxxxx777777xxxxxxxxxxx+77x",
"xxxxxxxxxxxxxxxxxxxxxxxxxxxxxxxxxxxxxxxxxxxxxxxxxx"
};
