/* XPM */
static char *result[] = {
/* columns rows colors chars-per-pixel */
"50 50 7 1 ",
"  c #171E7A",
". c #074D8A",
"X c #2C38E6",
"o c #0B68E0",
"O c #0C80E6",
"+ c #A9C4B8",
"@ c None",
/* pixels */
"@@                                              @@",
"@@                                              @@",
"                                                  ",
"     XXXXXXXXXXXXXXXXXXXXXXXXXXXXXXXXXXXXXXXX     ",
"     XXXXXXXXXXXXXXXXXXXXXXXXXXXXXXXXXXXXXXXX     ",
"   XXXXXXXXXXXXXXXXXXXXXXXXXXXXXXXXXXXXXXXXXXXX   ",
"   XXX++XooooooooooooooooooooooooooooooooX++XXX   ",
"   XXX++XooooooooooooooooooooooooooooooooX++XXX   ",
"   XXXXXXooooooooooooooooooooooooooooooooXXXXXX   ",
"   XXXooooooooooooooooOOOOOOOOOOOOOOOoooooooXXX   ",
"   XXXooooooooooooooooOOOOOOOOOOOOOOOoooooooXXX   ",
"   XXXoooooooooooooooooooooOOOOOOOOOOOOoooooXXX   ",
"   XXXooooooooooooooooooooooooOOOOOOOOOOOoooXXX   ",
"   XXXooooooooooooooooooooooooOOOOOOOOOOOoooXXX   ",
"   XXXoooooooooooooooooooooooooooOOOOOOOOoooXXX   ",
"   XXXoooooooooooooooooooooooooooOOOOOOOOoooXXX   ",
"   XXXooooooooooooooooooooooooooooOOOOOOOoooXXX   ",
"   XXXooooooooooooooooooooooooooooooOOOOOoooXXX   ",
"   XXXooooooooooooooooooooooooooooooOOOOOoooXXX   ",
"   XXXooooooooooooooooooooooooooooooOOOOOoooXXX   ",
"   XXXoooooooooooooooooooooooooooooooOOOOoooXXX   ",
"   XXXoooooooooooooooooooooooooooooooOOOOoooXXX   ",
"   XXXooo..ooooooooooooooooooooooooooOOOOoooXXX   ",
"   XXXooo..ooooooooooooooooooooooooooooOOoooXXX   ",
"   XXXooo..ooooooooooooooooooooooooooooOOoooXXX   ",
"   XXXooo..ooooooooooooooooooooooooooooOOoooXXX   ",
"   XXXooo..ooooooooooooooooooooooooooooOOoooXXX   ",
"   XXXooo...oooooooooooooooooooooooooooOOoooXXX   ",
"   XXXooo...ooooooooooooooooooooooooooooooooXXX   ",
"   XXXooo...ooooooooooooooooooooooooooooooooXXX   ",
"   XXXooo.....ooooooooooooooooooooooooooooooXXX   ",
"   XXXooo.....ooooooooooooooooooooooooooooooXXX   ",
"   XXXooo.....ooooooooooooooooooooooooooooooXXX   ",
"   XXXooo.......ooooooooooooooooooooooooooooXXX   ",
"   XXXooo........oooooooooooooooooooooooooooXXX   ",
"   XXXooo........oooooooooooooooooooooooooooXXX   ",
"   XXXooo...........ooooooooooooooooooooooooXXX   ",
"   XXXooooo............oooooooooooooooooooooXXX   ",
"   XXXooooo............oooooooooooooooooooooXXX   ",
"   XXXoooooo................ooooooooooooooooXXX   ",
"   XXXoooooo................ooooooooooooooooXXX   ",
"   XXXXXXooooooooooooooooooooooooooooooooXXXXXX   ",
"   XXX++XooooooooooooooooooooooooooooooooX++XXX   ",
"   XXX++XooooooooooooooooooooooooooooooooX++XXX   ",
"   XXXXXXXXXXXXXXXXXXXXXXXXXXXXXXXXXXXXXXXXXXXX   ",
"     XXXXXXXXXXXXXXXXXXXXXXXXXXXXXXXXXXXXXXXX     ",
"     XXXXXXXXXXXXXXXXXXXXXXXXXXXXXXXXXXXXXXXX     ",
"                                                  ",
"@@                                              @@",
"@@                                              @@"
};
